<?xml version="1.0" standalone="no"?>
<!DOCTYPE svg PUBLIC "-//W3C//DTD SVG 20010904//EN"
 "http://www.w3.org/TR/2001/REC-SVG-20010904/DTD/svg10.dtd">
<svg version="1.0" xmlns="http://www.w3.org/2000/svg"
 width="100" height="100" viewBox="0 0 1024.000000 1186.000000"
 preserveAspectRatio="xMidYMid meet">

<g transform="translate(0.000000,1186.000000) scale(0.100000,-0.100000)"
fill="#FF1E9D22" stroke="#FF1E9D22" stroke-width="300 ">
<path d="M5123 11673 c43 -1215 32 -1594 -69 -2378 -15 -110 -28 -202 -30
-204 -9 -9 -488 286 -903 558 -527 345 -716 463 -954 595 -320 178 -626 317
-1081 492 -77 30 -141 52 -142 51 -2 -2 22 -60 52 -130 164 -384 298 -775 545
-1592 249 -823 359 -1157 494 -1496 42 -105 59 -162 52 -164 -22 -8 -582 -173
-1212 -359 -346 -102 -848 -250 -1115 -329 -267 -79 -545 -162 -617 -183 -73
-22 -133 -42 -133 -46 0 -3 48 -37 108 -75 59 -39 330 -215 602 -393 1220
-796 1443 -942 1573 -1025 131 -84 137 -90 120 -106 -10 -9 -335 -238 -723
-509 -388 -271 -709 -496 -714 -501 -21 -19 74 -94 239 -190 145 -83 557 -284
820 -399 116 -50 213 -95 217 -98 3 -4 -39 -81 -94 -172 -162 -269 -328 -624
-328 -701 0 -52 190 -78 720 -99 357 -14 489 -32 513 -71 7 -11 -12 -54 -67
-155 -131 -242 -235 -487 -252 -593 l-7 -44 264 7 c145 3 374 9 509 12 l245 7
45 -79 c24 -44 79 -131 121 -194 366 -546 863 -916 1409 -1050 67 -16 148 -32
181 -36 33 -4 62 -11 65 -15 8 -13 514 -12 514 1 0 6 16 10 34 10 59 0 245 40
361 77 389 125 719 381 945 734 38 59 109 148 170 213 58 61 127 141 154 178
46 63 50 65 80 58 39 -10 565 -45 572 -38 2 3 -12 29 -32 59 -50 73 -119 221
-138 294 -27 104 -48 370 -31 386 2 3 157 -16 342 -42 186 -26 339 -46 340
-45 1 1 -51 66 -117 144 -198 239 -302 409 -361 591 -53 165 -51 206 8 272
126 139 487 281 1105 436 l230 57 -29 20 c-136 99 -356 310 -492 472 -155 185
-441 606 -441 650 0 31 77 173 138 254 188 251 560 520 1086 787 l210 106 -40
15 c-465 178 -732 331 -975 560 -124 116 -295 331 -357 449 -11 19 5 43 169
255 229 294 478 626 696 928 183 255 513 725 513 733 0 2 -35 -4 -77 -14 -289
-70 -710 -145 -981 -175 -159 -18 -673 -30 -815 -19 -125 9 -131 15 -124 110
4 53 31 145 111 385 117 346 171 547 209 775 66 391 60 799 -18 1180 -34 163
-106 418 -116 408 -4 -4 -67 -110 -138 -235 -473 -823 -779 -1229 -1155 -1532
l-59 -48 -19 23 c-10 13 -70 98 -134 189 -149 213 -287 438 -545 887 -286 498
-385 648 -548 827 -183 202 -400 357 -631 450 -35 14 -66 26 -68 26 -3 0 -2
-84 1 -187z m154 91 c180 -85 385 -241 525 -399 169 -192 261 -330 546 -827
312 -543 454 -768 644 -1026 l69 -93 61 48 c380 297 703 722 1182 1556 60 103
110 186 113 184 9 -9 65 -220 88 -332 50 -245 60 -351 59 -655 0 -218 -4 -313
-17 -405 -45 -306 -92 -493 -233 -911 -76 -228 -107 -332 -111 -382 -5 -66 -4
-70 25 -103 l30 -34 354 0 c507 0 838 39 1407 166 74 16 137 28 141 27 22 -9
-746 -1066 -1160 -1598 -100 -129 -184 -241 -187 -247 -7 -18 129 -221 220
-330 252 -300 598 -526 1090 -712 26 -10 21 -14 -120 -87 -694 -360 -1077
-674 -1219 -1002 l-33 -75 42 -66 c161 -259 299 -453 432 -611 95 -112 274
-289 374 -370 44 -36 80 -67 81 -71 0 -3 -44 -16 -97 -28 -476 -114 -893 -256
-1067 -365 -85 -53 -161 -132 -171 -177 -10 -42 1 -106 36 -213 60 -182 155
-344 321 -548 113 -137 121 -148 110 -148 -10 0 -552 77 -598 85 l-31 5 -6
-62 c-9 -99 9 -283 38 -381 24 -83 79 -204 126 -274 15 -24 17 -33 7 -33 -24
-1 -523 33 -526 35 -2 2 18 35 43 75 59 91 147 273 178 371 83 254 82 495 -2
684 -26 58 -26 63 -15 130 7 39 27 175 45 302 27 195 35 233 48 233 39 0 161
71 226 131 172 161 254 388 211 589 -36 170 -148 321 -289 390 l-69 34 6 40
c3 23 10 145 17 271 l11 230 38 55 c173 257 241 542 211 890 -26 299 -100 499
-244 656 l-58 63 -29 168 c-184 1058 -639 1705 -1413 2012 -183 73 -422 132
-677 167 -180 24 -621 30 -796 10 -317 -37 -576 -128 -811 -285 -105 -70 -276
-229 -363 -337 -518 -644 -804 -1812 -903 -3683 l-12 -223 -57 -18 c-76 -23
-143 -67 -210 -138 -101 -106 -155 -237 -165 -398 -18 -292 177 -594 432 -670
33 -10 61 -18 62 -19 1 0 9 -45 17 -100 83 -519 245 -1062 419 -1399 l63 -123
-135 -7 c-75 -3 -293 -9 -485 -12 l-348 -7 7 34 c20 93 103 285 218 504 115
221 112 214 101 233 -33 54 -171 76 -584 92 -387 15 -546 30 -623 59 -26 10
-28 14 -22 44 23 111 159 389 330 673 58 97 105 177 103 179 -2 1 -86 38 -188
83 -539 234 -1008 477 -1084 561 -21 23 -112 -44 739 551 380 265 696 487 703
494 10 9 -66 63 -365 258 -208 135 -607 395 -888 578 -280 183 -653 426 -827
539 -175 113 -318 208 -318 211 0 3 258 81 573 174 649 192 1898 560 2242 661
127 38 234 72 239 76 5 4 -17 71 -49 151 -77 194 -159 420 -243 678 -65 200
-110 346 -322 1045 -164 542 -342 1056 -474 1368 -42 101 -44 108 -23 101 142
-44 601 -240 852 -364 330 -162 601 -324 1205 -720 435 -285 943 -600 969
-600 10 0 13 18 46 270 94 731 106 1129 69 2283 -7 211 -7 217 12 211 10 -4
60 -26 111 -50z m696 -2989 c1186 -121 1869 -771 2122 -2019 19 -94 37 -195
41 -225 l7 -54 -44 30 c-171 117 -404 184 -712 203 -419 27 -762 -99 -1028
-376 -129 -135 -223 -300 -271 -474 -20 -75 -23 -107 -23 -275 0 -142 5 -213
18 -278 104 -515 435 -835 947 -912 127 -20 409 -19 521 0 227 40 444 151 601
308 l51 51 -7 -135 c-24 -458 -70 -1050 -111 -1414 -29 -254 -83 -633 -93
-651 -5 -8 -25 9 -58 50 -58 71 -158 150 -255 201 -92 48 -278 110 -292 96
-14 -14 -15 -14 83 -44 584 -180 764 -680 466 -1292 -231 -473 -699 -875
-1166 -999 -49 -14 -115 -28 -145 -31 -37 -5 -55 -12 -55 -21 0 -19 29 -17
151 10 196 45 416 147 596 276 42 30 85 62 97 70 l21 15 -19 -30 c-97 -153
-288 -362 -426 -467 -299 -227 -648 -342 -1080 -355 -380 -12 -658 46 -986
207 -373 182 -703 478 -966 865 -128 188 -132 201 -29 92 95 -100 124 -123
141 -112 6 3 -17 31 -51 62 -239 222 -420 536 -486 843 -27 126 -24 382 5 508
49 213 143 383 298 537 147 146 306 239 514 298 80 23 116 47 71 47 -41 0
-218 -63 -313 -112 -319 -163 -523 -429 -605 -790 -11 -50 -16 -123 -17 -236
l-1 -163 -28 88 c-116 373 -200 848 -238 1358 -16 205 -16 813 0 1060 19 307
50 696 72 895 212 1978 705 2955 1629 3229 272 81 661 105 1053 66z m1452
-2095 c249 -21 446 -73 601 -161 105 -58 234 -187 291 -289 83 -149 128 -336
140 -580 11 -244 -27 -442 -121 -635 -173 -352 -485 -564 -894 -605 -127 -13
-372 1 -499 29 -466 102 -756 419 -837 916 -33 205 -29 354 15 515 97 351 403
650 781 764 170 51 309 63 523 46z m-4250 -2529 c-11 -153 13 -654 51 -1015
l7 -69 -29 7 c-16 4 -61 22 -101 41 -144 70 -281 258 -319 436 -20 95 -14 251
14 329 46 130 131 247 220 302 49 30 144 68 155 61 5 -3 6 -44 2 -92z m5139 0
c186 -129 272 -396 197 -614 -62 -179 -199 -333 -349 -392 -24 -10 -45 -15
-49 -12 -3 4 0 55 6 116 27 262 81 888 81 949 0 16 53 -6 114 -47z"/>
<path d="M6745 7319 c-500 -27 -1104 -104 -1645 -210 -463 -91 -879 -207
-1007 -280 -87 -50 -153 -141 -153 -209 0 -8 9 -34 19 -57 41 -88 160 -111
317 -60 199 64 566 116 1684 242 1135 127 1493 179 1647 237 57 21 155 103
178 149 21 39 19 92 -5 121 -30 39 -91 58 -224 68 -142 11 -596 11 -811 -1z
m924 -38 c128 -33 136 -111 20 -215 -38 -34 -69 -51 -118 -66 -193 -58 -509
-103 -1556 -220 -1150 -129 -1547 -185 -1738 -247 -102 -33 -197 -37 -243 -9
-116 69 -66 209 104 295 160 80 664 210 1167 300 470 85 964 143 1490 175 135
8 831 -3 874 -13z"/>
<path d="M4449 6330 c-256 -41 -469 -147 -640 -319 -185 -186 -283 -402 -311
-683 -14 -136 -1 -301 32 -430 98 -377 371 -638 764 -731 126 -30 467 -32 596
-3 455 99 734 380 831 838 30 140 33 412 6 538 -90 416 -362 676 -809 771
-106 23 -378 34 -469 19z m377 -31 c491 -68 806 -356 879 -804 42 -254 -2
-558 -110 -780 -158 -322 -465 -511 -883 -545 -418 -34 -779 106 -988 383 -66
87 -140 244 -170 362 -31 123 -42 327 -25 458 64 477 407 836 880 921 93 17
312 20 417 5z"/>
<path d="M3937 5170 c6 -23 1 -25 -28 -7 -17 10 -23 10 -26 0 -3 -7 -20 -13
-38 -13 -39 0 -52 -14 -34 -37 11 -13 10 -17 -4 -28 -9 -7 -17 -18 -17 -24 0
-19 44 -90 58 -96 24 -9 101 32 112 59 5 15 14 26 20 26 16 0 12 22 -7 35 -17
12 -17 15 -1 48 18 37 10 57 -23 57 -12 0 -16 -6 -12 -20z"/>
<path d="M6094 4803 c3 -10 21 -94 40 -188 126 -619 127 -1110 4 -1355 -141
-279 -382 -4 -489 558 -14 70 -28 121 -34 119 -14 -6 -8 -64 21 -197 102 -464
295 -711 458 -587 60 46 116 178 141 332 42 258 24 616 -51 1023 -41 223 -64
312 -81 312 -9 0 -12 -6 -9 -17z"/>
<path d="M8111 4285 c-89 -173 -302 -312 -561 -368 -115 -24 -337 -29 -450 -8
-94 17 -218 55 -293 91 -52 25 -78 25 -63 1 10 -16 151 -70 248 -96 348 -92
725 -26 975 169 115 90 240 276 185 276 -4 0 -22 -29 -41 -65z"/>
<path d="M3410 4124 c0 -4 18 -45 40 -91 94 -192 285 -329 545 -389 124 -29
463 -27 599 4 106 23 115 27 100 41 -5 6 -44 2 -94 -10 -210 -46 -446 -45
-635 2 -230 58 -430 212 -501 387 -13 31 -30 58 -38 60 -9 2 -16 0 -16 -4z"/>
<path d="M4495 3135 c-256 -69 -477 -250 -595 -485 -227 -453 -93 -989 335
-1340 372 -305 912 -473 1625 -505 244 -11 570 22 794 80 549 143 952 489
1068 916 18 68 22 109 22 214 -1 113 -4 141 -28 212 -94 287 -373 463 -684
432 -113 -12 -205 -36 -490 -130 -302 -99 -419 -128 -547 -136 -221 -13 -331
45 -675 352 -289 258 -425 348 -585 390 -72 18 -172 18 -240 0z m235 -16 c49
-11 211 -87 248 -117 l23 -18 -42 -84 c-73 -145 -202 -250 -277 -224 -63 21
-99 187 -73 338 22 123 26 127 121 105z m431 -258 c52 -44 112 -95 133 -113
l39 -35 -30 -44 c-46 -66 -162 -172 -223 -202 -72 -36 -124 -36 -147 0 -37 57
-12 226 54 358 29 58 65 115 74 115 3 0 48 -36 100 -79z m294 -256 c33 -29 86
-71 118 -95 31 -23 57 -44 57 -46 0 -12 -92 -184 -115 -214 -31 -42 -91 -80
-126 -80 -53 0 -92 69 -92 165 -1 63 35 237 64 313 11 27 13 26 94 -43z m1765
32 l55 -12 -3 -50 c-5 -66 -28 -168 -48 -208 -87 -172 -216 -106 -294 150 -12
40 -20 80 -18 90 6 35 196 53 308 30z m-378 -122 c-6 -214 -87 -385 -181 -385
-37 0 -104 75 -130 145 -28 73 -54 206 -44 216 15 13 318 109 338 106 18 -2
20 -9 17 -82z m-402 -90 c0 -74 -29 -196 -63 -258 -74 -141 -199 -167 -259
-55 -19 37 -23 58 -23 156 l0 113 130 34 c72 18 141 38 155 44 51 20 60 15 60
-34z m-613 -41 c44 -10 95 -14 144 -12 l77 5 -13 -36 c-83 -233 -207 -349
-289 -272 -55 52 -89 207 -72 324 l7 47 39 -20 c22 -11 70 -27 107 -36z
m-1518 -859 c34 -17 41 -33 41 -90 0 -44 -35 -155 -49 -155 -12 0 -190 159
-201 179 -14 28 -15 26 38 49 83 35 128 40 171 17z m351 -153 c38 -38 54 -119
45 -223 -4 -44 -11 -82 -17 -85 -19 -12 -338 163 -338 186 0 16 95 90 154 120
76 39 119 39 156 2z m437 -147 c30 -35 43 -86 43 -177 0 -72 -13 -128 -31
-128 -36 0 -359 107 -359 119 0 13 91 117 132 149 94 76 170 89 215 37z m438
-35 c73 -45 91 -166 42 -273 -14 -31 -33 -60 -42 -64 -16 -5 -233 25 -338 48
-56 13 -56 18 1 114 43 72 114 145 168 174 52 27 126 27 169 1z m424 -50 c45
-24 63 -145 40 -263 l-12 -57 -66 0 c-75 0 -334 19 -340 26 -2 2 11 29 30 61
41 69 170 203 219 226 39 18 102 22 129 7z m360 -31 c25 -27 40 -93 43 -189
l3 -75 -60 -6 c-33 -4 -111 -10 -174 -14 l-114 -7 6 23 c4 13 7 33 7 45 0 27
42 89 103 154 84 89 146 112 186 69z m415 1 c43 -16 91 -135 64 -158 -29 -24
-392 -111 -406 -98 -37 37 221 266 299 266 10 0 29 -4 43 -10z"/>
<path d="M7983 5555 c-20 -19 -44 -35 -55 -35 -22 0 -23 -9 -3 -37 9 -12 15
-26 14 -30 -4 -21 3 -33 22 -43 16 -9 29 -7 63 9 23 12 48 21 55 21 16 0 40
58 33 82 -5 22 -58 68 -78 68 -8 0 -31 -16 -51 -35z"/>
</g>
</svg>
